<svg width="210" height="51" viewBox="0 0 210 51" fill="none" xmlns="http://www.w3.org/2000/svg">
<path d="M48.072 38.184C47.7947 38.0133 47.6453 37.8427 47.624 37.672C47.6027 37.5227 47.656 37.224 47.784 36.776C47.7627 36.4987 47.7733 36.2427 47.816 36.008C47.88 35.7733 47.9227 35.6133 47.944 35.528C48.0507 35.528 48.1147 35.464 48.136 35.336C48.1573 35.208 48.168 35.1013 48.168 35.016C48.168 34.8453 48.232 34.5573 48.36 34.152C48.5093 33.7467 48.6373 33.3307 48.744 32.904C48.9147 32.4773 49.0747 32.0827 49.224 31.72C49.3947 31.336 49.48 31.1013 49.48 31.016C49.48 30.8453 49.5227 30.6747 49.608 30.504C49.6933 30.312 49.7893 30.1307 49.896 29.96C50.0027 29.704 50.0773 29.4267 50.12 29.128C50.184 28.808 50.216 28.5627 50.216 28.392C50.344 28.1147 50.4827 27.816 50.632 27.496C50.7813 27.176 50.8987 26.8453 50.984 26.504C51.112 26.1413 51.2933 25.6187 51.528 24.936C51.784 24.232 52.0507 23.5173 52.328 22.792C52.52 22.3867 52.712 21.96 52.904 21.512C53.096 21.064 53.2667 20.68 53.416 20.36C53.5653 20.04 53.672 19.88 53.736 19.88C53.736 19.88 53.736 19.848 53.736 19.784C53.736 19.6987 53.736 19.6133 53.736 19.528C53.736 19.4213 53.8213 19.2187 53.992 18.92C54.1627 18.6 54.3227 18.2693 54.472 17.928C54.6853 17.608 54.8347 17.3093 54.92 17.032C55.0053 16.7333 55.048 16.584 55.048 16.584C55.048 16.584 55.08 16.52 55.144 16.392C55.2293 16.264 55.3147 16.1573 55.4 16.072C55.6773 15.88 55.9333 15.8053 56.168 15.848C56.424 15.8907 56.6373 16.0933 56.808 16.456C56.9787 16.7973 57.0533 17.0853 57.032 17.32C57.0107 17.5333 56.9147 17.768 56.744 18.024C56.5733 18.408 56.3493 18.8987 56.072 19.496C55.7947 20.072 55.496 20.7013 55.176 21.384C54.8773 22.0453 54.5893 22.6853 54.312 23.304C54.056 23.9013 53.8427 24.424 53.672 24.872C53.5227 25.2987 53.448 25.5653 53.448 25.672L52.136 28.904C52.136 28.9467 52.0933 29.0533 52.008 29.224C51.944 29.3947 51.848 29.6507 51.72 29.992C51.6133 30.3333 51.4747 30.7813 51.304 31.336C51.1333 31.8907 50.9307 32.5627 50.696 33.352C50.2693 34.7173 49.9387 35.784 49.704 36.552C49.4693 37.2987 49.2773 37.8107 49.128 38.088C49 38.3867 48.8613 38.536 48.712 38.536C48.6267 38.536 48.5307 38.4933 48.424 38.408C48.3387 38.344 48.2213 38.2693 48.072 38.184ZM59.368 38.44C59.176 38.4613 58.9093 38.3653 58.568 38.152C58.248 37.96 57.896 37.7147 57.512 37.416C57.1493 37.1173 56.7973 36.808 56.456 36.488C56.136 36.168 55.88 35.8907 55.688 35.656C55.3467 35.1653 54.92 34.5253 54.408 33.736C53.896 32.9253 53.512 32.0613 53.256 31.144C53.1067 30.4613 52.9573 29.928 52.808 29.544C52.6587 29.1387 52.5627 28.808 52.52 28.552L52.552 26.312L54.184 26.824C54.2907 27.976 54.4507 28.936 54.664 29.704C54.8987 30.4507 55.176 31.112 55.496 31.688C55.752 32.2427 56.04 32.7973 56.36 33.352C56.68 33.8853 57.0213 34.3333 57.384 34.696C57.8747 35.2293 58.312 35.624 58.696 35.88C59.08 36.136 59.368 36.264 59.56 36.264C59.6667 36.2853 59.816 36.36 60.008 36.488C60.2213 36.616 60.4133 36.7547 60.584 36.904C60.776 37.032 60.8827 37.16 60.904 37.288C60.9253 37.352 60.936 37.448 60.936 37.576C60.936 37.7253 60.9147 37.8533 60.872 37.96C60.8507 38.088 60.8187 38.184 60.776 38.248C60.712 38.3973 60.5947 38.5253 60.424 38.632C60.2747 38.76 59.9227 38.696 59.368 38.44ZM52.2 26.568L54.536 24.872C54.6 24.808 54.824 24.5947 55.208 24.232C55.6133 23.8693 56.2747 23.3467 57.192 22.664L61.128 19.464C61.6613 19.1867 62.2053 18.8347 62.76 18.408C63.336 17.9813 63.7733 17.672 64.072 17.48C64.4347 17.224 64.7547 17 65.032 16.808C65.3093 16.616 65.4907 16.5307 65.576 16.552C65.7467 16.4667 65.9173 16.4987 66.088 16.648C66.28 16.776 66.4293 16.9573 66.536 17.192C66.664 17.4053 66.7173 17.5973 66.696 17.768C66.7387 17.9813 66.696 18.1627 66.568 18.312C66.44 18.4613 66.1307 18.6747 65.64 18.952C65.2347 19.144 64.872 19.336 64.552 19.528C64.2533 19.72 64.072 19.88 64.008 20.008C64.008 20.008 63.8053 20.168 63.4 20.488C63.016 20.7867 62.5147 21.1493 61.896 21.576C61.0427 22.1307 60.3067 22.6533 59.688 23.144C59.0907 23.6347 58.7067 24.008 58.536 24.264C58.4507 24.264 58.3653 24.296 58.28 24.36C58.216 24.424 58.1413 24.4453 58.056 24.424C58.056 24.424 57.9707 24.4773 57.8 24.584C57.6507 24.6907 57.5333 24.7973 57.448 24.904C57.4053 25.0107 57.3093 25.16 57.16 25.352C57.032 25.544 56.8613 25.6293 56.648 25.608C56.4987 25.6933 56.232 25.8747 55.848 26.152C55.464 26.408 55.0587 26.696 54.632 27.016C54.2267 27.336 53.8747 27.624 53.576 27.88C53.2773 28.136 53.1173 28.2853 53.096 28.328L52.2 26.568ZM64.7518 36.52C64.4744 36.52 64.2504 36.4667 64.0798 36.36C63.9304 36.2533 63.7384 36.104 63.5038 35.912C63.0984 35.4853 62.8104 35.08 62.6398 34.696C62.4691 34.2907 62.4158 33.9067 62.4798 33.544C62.5438 33.3733 62.5651 33.2133 62.5438 33.064C62.5438 32.8933 62.5438 32.808 62.5438 32.808C62.4371 32.7013 62.4051 32.6373 62.4478 32.616C62.4904 32.5733 62.5331 32.5093 62.5758 32.424C62.7038 32.424 62.7464 32.3067 62.7038 32.072C62.6611 31.9013 62.7464 31.528 62.9598 30.952C63.1731 30.376 63.4398 29.832 63.7598 29.32C63.8878 29.1067 64.0798 28.8293 64.3358 28.488C64.5918 28.1253 64.8691 27.7733 65.1678 27.432C65.4878 27.0693 65.7758 26.7813 66.0318 26.568C66.5651 26.12 67.0344 25.7893 67.4398 25.576C67.8451 25.3627 68.2824 25.2027 68.7517 25.096C69.2211 24.9893 69.5411 24.936 69.7118 24.936C69.9038 24.936 70.1598 25.1067 70.4798 25.448C70.9704 25.6613 71.3224 25.9173 71.5358 26.216C71.7704 26.5147 71.9198 26.952 71.9838 27.528C72.0478 28.168 71.9944 28.904 71.8238 29.736C71.6744 30.5467 71.1731 31.56 70.3198 32.776C69.7864 33.544 69.2958 34.12 68.8478 34.504C68.3998 34.8667 67.8664 35.2293 67.2478 35.592C66.7998 35.8907 66.3944 36.1147 66.0318 36.264C65.6691 36.392 65.2424 36.4773 64.7518 36.52ZM67.8238 33.128C68.3358 32.552 68.7411 32.008 69.0398 31.496C69.3598 30.984 69.6584 30.3333 69.9358 29.544C70.0211 29.3093 70.0744 29.0213 70.0958 28.68C70.1171 28.3173 70.1064 27.9867 70.0638 27.688C70.0424 27.368 69.9678 27.1867 69.8398 27.144C69.5838 26.9947 69.2744 26.952 68.9118 27.016C68.5491 27.0587 68.1544 27.2613 67.7278 27.624C67.0664 28.1787 66.4904 28.872 65.9998 29.704C65.5091 30.5147 65.0291 31.4427 64.5598 32.488C64.2398 33.256 64.1651 33.8747 64.3358 34.344C64.5278 34.792 64.9224 34.952 65.5198 34.824C66.1384 34.6747 66.9064 34.1093 67.8238 33.128ZM86.561 36.904C86.3477 36.7973 86.1877 36.6907 86.081 36.584C85.9743 36.456 85.793 36.3173 85.537 36.168C85.4517 35.8693 85.3557 35.5707 85.249 35.272C85.1637 34.952 85.1317 34.6427 85.153 34.344C85.1743 34.1733 85.1423 33.992 85.057 33.8C84.993 33.5867 85.0037 33.4053 85.089 33.256C85.0463 32.9147 85.057 32.4773 85.121 31.944C85.185 31.3893 85.2703 30.8667 85.377 30.376C85.4837 29.864 85.5583 29.5013 85.601 29.288C85.537 29.2027 85.473 29.1493 85.409 29.128C85.3663 29.1067 85.3023 29.1387 85.217 29.224C85.0037 29.4373 84.801 29.6507 84.609 29.864C84.417 30.0773 84.2143 30.3013 84.001 30.536C83.9157 30.6213 83.8197 30.7067 83.713 30.792C83.6063 30.856 83.553 30.9627 83.553 31.112L82.401 32.648C82.3157 32.8187 82.1557 33.0427 81.921 33.32C81.7077 33.576 81.537 33.8853 81.409 34.248C81.3663 34.3973 81.2917 34.5253 81.185 34.632C81.0783 34.7173 80.9717 34.8027 80.865 34.888C80.5877 34.7813 80.4063 34.7067 80.321 34.664C80.2357 34.6213 80.0757 34.4933 79.841 34.28C79.6277 34.0667 79.4783 33.8747 79.393 33.704C79.3077 33.512 79.2863 33.32 79.329 33.128C79.329 32.808 79.329 32.36 79.329 31.784C79.3503 31.1867 79.3503 30.6213 79.329 30.088C79.329 29.5333 79.2863 29.1493 79.201 28.936C78.9663 28.9573 78.8063 28.9893 78.721 29.032C78.6357 29.0747 78.529 29.2027 78.401 29.416C78.4223 29.3947 78.3263 29.544 78.113 29.864C77.921 30.1627 77.6543 30.5573 77.313 31.048C76.993 31.5173 76.673 31.9973 76.353 32.488C76.033 32.9573 75.7663 33.3627 75.553 33.704C75.361 34.024 75.2757 34.1733 75.297 34.152C75.1477 34.3227 75.0197 34.504 74.913 34.696C74.8277 34.888 74.7423 35.0907 74.657 35.304C74.5503 35.56 74.433 35.7307 74.305 35.816C74.177 35.88 74.0597 35.8587 73.953 35.752C73.7823 35.6453 73.601 35.5387 73.409 35.432C73.2383 35.3253 73.089 35.2293 72.961 35.144C72.8757 34.9947 72.801 34.8453 72.737 34.696C72.6943 34.5253 72.6623 34.3333 72.641 34.12C72.8117 34.0133 72.929 33.9493 72.993 33.928C73.057 33.8853 73.1103 33.8107 73.153 33.704C73.6223 33 74.0277 32.4027 74.369 31.912C74.7103 31.4 74.9983 30.984 75.233 30.664C75.4677 30.344 75.649 30.0987 75.777 29.928C75.905 29.736 75.9797 29.608 76.001 29.544C76.1077 29.3307 76.2357 29.128 76.385 28.936C76.5557 28.744 76.7157 28.5413 76.865 28.328C76.8863 28.264 76.993 28.1147 77.185 27.88C77.377 27.624 77.5797 27.368 77.793 27.112C78.0063 26.856 78.1557 26.7067 78.241 26.664C78.3477 26.6 78.4223 26.5147 78.465 26.408C78.529 26.28 78.593 26.152 78.657 26.024C78.6997 25.832 78.7957 25.6933 78.945 25.608C79.0943 25.5227 79.3183 25.5013 79.617 25.544C79.7877 25.6933 79.9797 25.8533 80.193 26.024C80.4063 26.1733 80.6303 26.3333 80.865 26.504C80.8437 26.7173 80.833 26.9413 80.833 27.176C80.8543 27.4107 80.9397 27.7733 81.089 28.264C81.025 28.52 81.0357 28.7867 81.121 29.064C81.2063 29.3413 81.2063 29.5973 81.121 29.832C81.121 30.1093 81.185 30.312 81.313 30.44C81.4623 30.5467 81.6863 30.44 81.985 30.12C82.3263 29.6933 82.7317 29.2347 83.201 28.744C83.6703 28.232 84.129 27.752 84.577 27.304C85.0463 26.8347 85.441 26.44 85.761 26.12C86.1023 25.7787 86.305 25.5653 86.369 25.48C86.4117 25.3733 86.4863 25.32 86.593 25.32C86.721 25.2987 86.8383 25.32 86.945 25.384C87.3077 25.576 87.553 25.7147 87.681 25.8C87.809 25.8853 87.9903 26.0453 88.225 26.28C88.4383 26.5787 88.4703 26.8453 88.321 27.08C88.2357 27.2933 88.1183 27.6453 87.969 28.136C87.841 28.6053 87.7023 29.128 87.553 29.704C87.425 30.28 87.3077 30.824 87.201 31.336C87.1157 31.8267 87.0623 32.2107 87.041 32.488C87.0197 32.9147 86.9983 33.3627 86.977 33.832C86.9557 34.28 86.9877 34.7493 87.073 35.24C87.2437 35.9013 87.2863 36.328 87.201 36.52C87.137 36.6907 86.9237 36.8187 86.561 36.904ZM93.2638 36.072C93.0931 36.1147 92.8691 36.136 92.5918 36.136C92.3144 36.1147 92.0691 36.0827 91.8558 36.04C91.6638 35.976 91.5677 35.912 91.5677 35.848C91.5677 35.7413 91.5144 35.688 91.4078 35.688C91.4078 35.688 91.3544 35.6453 91.2478 35.56C91.1624 35.4747 91.0238 35.3893 90.8318 35.304C90.6398 35.0053 90.5438 34.6853 90.5438 34.344C90.5438 33.9813 90.6398 33.416 90.8318 32.648C90.8958 32.1147 91.0984 31.496 91.4398 30.792C91.8024 30.0667 92.2398 29.3307 92.7518 28.584C93.2638 27.8373 93.7971 27.1653 94.3518 26.568C94.9278 25.9707 95.4504 25.5333 95.9198 25.256C96.2184 24.9573 96.5811 24.7973 97.0078 24.776C97.4344 24.7547 97.8398 24.8507 98.2238 25.064C98.4371 25.1707 98.6504 25.3413 98.8638 25.576C99.0771 25.8107 99.2798 26.0667 99.4718 26.344C99.6638 26.6213 99.8238 26.8987 99.9518 27.176C100.016 27.4107 100.048 27.624 100.048 27.816C100.069 27.9867 100.069 28.2 100.048 28.456C100.048 28.712 100.016 29.096 99.9518 29.608C99.8451 29.992 99.7491 30.4613 99.6638 31.016C99.5998 31.5707 99.5678 32.0507 99.5678 32.456C99.5251 32.8613 99.5678 33.1493 99.6958 33.32C99.8451 33.4907 100.058 33.5013 100.336 33.352C100.592 33.224 100.837 33.1707 101.072 33.192C101.306 33.192 101.488 33.256 101.616 33.384C101.765 33.512 101.84 33.704 101.84 33.96C101.84 34.216 101.712 34.4827 101.456 34.76C101.221 35.016 100.922 35.24 100.56 35.432C100.218 35.6027 99.8878 35.688 99.5678 35.688C99.3331 35.688 99.1091 35.5493 98.8958 35.272C98.6824 34.9733 98.4904 34.6213 98.3198 34.216C98.1704 33.7893 98.0318 33.384 97.9038 33L97.7118 32.264L96.3358 33.576C96.0584 33.8747 95.7811 34.152 95.5038 34.408C95.2478 34.6427 95.0878 34.8133 95.0238 34.92C94.9171 35.112 94.7144 35.304 94.4158 35.496C94.1384 35.688 93.7544 35.88 93.2638 36.072ZM93.3598 34.184C93.7224 33.9707 94.1384 33.6613 94.6078 33.256C95.0771 32.8293 95.5358 32.3707 95.9838 31.88C96.4318 31.368 96.8051 30.8987 97.1038 30.472C97.4664 29.9813 97.7438 29.5227 97.9358 29.096C98.1278 28.6693 98.2664 28.264 98.3518 27.88C98.2664 27.6453 98.1278 27.4 97.9358 27.144C97.7438 26.8667 97.5731 26.7173 97.4238 26.696C96.9544 26.696 96.4531 26.9947 95.9198 27.592C95.4078 28.168 94.9064 28.7973 94.4158 29.48C94.3304 29.5867 94.2131 29.7573 94.0638 29.992C93.9144 30.2267 93.7651 30.4507 93.6158 30.664C93.4878 30.856 93.4024 30.984 93.3598 31.048C93.2958 31.1333 93.1678 31.3787 92.9758 31.784C92.8051 32.168 92.6344 32.5627 92.4638 32.968C92.2931 33.352 92.2078 33.608 92.2078 33.736C92.2078 33.864 92.2184 34.0027 92.2398 34.152C92.2824 34.3013 92.3891 34.3973 92.5598 34.44C92.7304 34.4827 92.9971 34.3973 93.3598 34.184ZM111.196 36.648C111.068 36.6053 110.94 36.5733 110.812 36.552C110.684 36.5093 110.556 36.4667 110.428 36.424C110.321 36.3813 110.193 36.3493 110.044 36.328C109.83 36.0293 109.745 35.6667 109.788 35.24C109.83 34.792 109.926 34.3333 110.076 33.864C110.246 33.3947 110.406 32.936 110.556 32.488C110.726 32.04 110.822 31.656 110.844 31.336C110.822 31.2507 110.79 31.2293 110.748 31.272C110.705 31.2933 110.684 31.3253 110.684 31.368C110.534 31.5387 110.321 31.656 110.044 31.72C109.766 31.784 109.51 31.8373 109.276 31.88C108.87 31.944 108.465 32.0187 108.06 32.104C107.654 32.1893 107.26 32.2853 106.876 32.392C106.812 32.3493 106.737 32.296 106.652 32.232C106.588 32.168 106.524 32.1147 106.46 32.072C106.31 32.072 106.182 32.2107 106.076 32.488C105.969 32.7653 105.873 33.1067 105.788 33.512C105.702 33.896 105.617 34.2693 105.532 34.632C105.468 34.9733 105.404 35.2187 105.34 35.368C104.998 35.4107 104.753 35.4213 104.604 35.4C104.476 35.3787 104.23 35.3147 103.868 35.208C103.697 34.9733 103.601 34.7493 103.58 34.536C103.58 34.3227 103.612 34.088 103.676 33.832C103.782 33.3413 103.868 32.9467 103.932 32.648C104.017 32.3493 104.156 31.9653 104.348 31.496C104.454 31.2613 104.55 31.0373 104.636 30.824C104.742 30.5893 104.796 30.3333 104.796 30.056C104.966 29.8427 105.084 29.608 105.148 29.352C105.212 29.096 105.286 28.84 105.372 28.584C105.713 27.7093 105.98 27.0373 106.172 26.568C106.385 26.0773 106.534 25.6933 106.62 25.416C106.705 25.1387 106.758 24.8827 106.78 24.648C106.801 24.3493 106.982 24.2 107.324 24.2C107.537 24.2 107.761 24.2853 107.996 24.456C108.23 24.6053 108.412 24.7973 108.54 25.032C108.668 25.2667 108.678 25.512 108.572 25.768C108.508 25.9387 108.401 26.216 108.252 26.6C108.124 26.9627 107.974 27.368 107.804 27.816C107.654 28.2427 107.505 28.648 107.356 29.032C107.228 29.3947 107.121 29.6613 107.036 29.832C107.014 29.9173 106.972 29.992 106.908 30.056C106.844 30.0987 106.812 30.1733 106.812 30.28C106.961 30.3867 107.206 30.4293 107.548 30.408C107.91 30.3653 108.166 30.3013 108.316 30.216C108.636 30.216 108.945 30.216 109.244 30.216C109.564 30.216 109.884 30.216 110.204 30.216C110.524 30.408 110.769 30.696 110.94 31.08C111.089 30.6747 111.292 30.1413 111.548 29.48C111.804 28.7973 112.049 28.1253 112.284 27.464C112.518 26.8027 112.657 26.3013 112.7 25.96C112.742 25.768 112.828 25.5973 112.956 25.448C113.084 25.2987 113.222 25.1813 113.372 25.096C113.67 25.2453 113.958 25.3733 114.236 25.48C114.534 25.5653 114.726 25.8107 114.812 26.216C114.79 26.408 114.748 26.6 114.684 26.792C114.62 26.9627 114.556 27.1333 114.492 27.304C114.278 27.9227 114.012 28.6053 113.692 29.352C113.372 30.0773 113.073 30.824 112.796 31.592C112.54 32.3387 112.358 33.0427 112.252 33.704C112.252 33.768 112.198 33.9813 112.092 34.344C112.006 34.7067 111.91 35.0587 111.804 35.4C111.718 35.7413 111.665 35.9227 111.644 35.944C111.644 36.0933 111.601 36.232 111.516 36.36C111.43 36.4667 111.324 36.5627 111.196 36.648ZM118.439 36.808C118.354 36.7653 118.258 36.7547 118.151 36.776C118.066 36.776 117.97 36.7653 117.863 36.744C117.095 36.2533 116.583 35.6667 116.327 34.984C116.093 34.3013 116.039 33.5653 116.167 32.776C116.295 31.9867 116.509 31.208 116.807 30.44C116.957 30.0773 117.106 29.7147 117.255 29.352C117.426 28.968 117.65 28.6373 117.927 28.36C118.077 28.0187 118.333 27.656 118.695 27.272C119.058 26.888 119.453 26.536 119.879 26.216C120.327 25.896 120.722 25.6613 121.063 25.512C121.255 25.4053 121.458 25.32 121.671 25.256C121.885 25.1707 122.087 25.0747 122.279 24.968C122.557 24.968 122.791 24.9893 122.983 25.032C123.175 25.0747 123.335 25.1493 123.463 25.256C123.591 25.3413 123.698 25.4907 123.783 25.704C123.869 25.896 123.933 26.152 123.975 26.472C123.847 26.5147 123.677 26.5893 123.463 26.696C123.271 26.8027 123.09 26.888 122.919 26.952C121.618 27.4213 120.615 28.0827 119.911 28.936C119.229 29.7893 118.61 30.8133 118.055 32.008C117.906 32.3067 117.81 32.6267 117.767 32.968C117.746 33.288 117.703 33.608 117.639 33.928C117.597 34.2907 117.693 34.6 117.927 34.856C118.055 35.0267 118.258 35.1013 118.535 35.08C118.834 35.0373 119.122 34.952 119.399 34.824C119.698 34.696 119.89 34.5787 119.975 34.472C120.061 34.408 120.135 34.344 120.199 34.28C120.285 34.216 120.37 34.1413 120.455 34.056C121.245 33.2667 121.895 32.168 122.407 30.76C122.941 29.352 123.399 27.88 123.783 26.344C123.826 26.1307 123.89 25.8107 123.975 25.384C124.082 24.936 124.167 24.4987 124.231 24.072C124.295 23.6453 124.306 23.3467 124.263 23.176C124.242 23.048 124.199 22.9307 124.135 22.824C124.071 22.696 124.093 22.5787 124.199 22.472C124.114 22.3653 124.018 22.1413 123.911 21.8C123.805 21.4587 123.73 21.2133 123.687 21.064C123.495 20.424 123.165 19.944 122.695 19.624C122.226 19.304 121.693 19.112 121.095 19.048C120.498 18.984 119.901 19.0373 119.303 19.208C119.175 19.2507 119.047 19.2827 118.919 19.304C118.791 19.304 118.663 19.3253 118.535 19.368C118.258 19.2613 118.055 19.0907 117.927 18.856C117.799 18.6213 117.714 18.4293 117.671 18.28C117.671 18.0667 117.703 17.896 117.767 17.768C117.853 17.64 117.959 17.5333 118.087 17.448C118.237 17.3627 118.397 17.2987 118.567 17.256C118.823 17.1707 119.079 17.1173 119.335 17.096C119.613 17.0533 119.815 16.9893 119.943 16.904C120.242 16.9893 120.541 17.032 120.839 17.032C121.159 17.032 121.458 17.096 121.735 17.224C122.162 17.416 122.557 17.5653 122.919 17.672C123.303 17.7573 123.645 18.024 123.943 18.472C124.114 18.7493 124.317 18.9947 124.551 19.208C124.807 19.4213 125.01 19.6667 125.159 19.944C125.266 20.1573 125.415 20.456 125.607 20.84C125.821 21.224 125.917 21.5333 125.895 21.768C126.301 22.6427 126.45 23.5387 126.343 24.456C126.237 25.352 126.023 26.248 125.703 27.144C125.383 28.04 125.095 28.904 124.839 29.736C124.818 29.8853 124.743 30.0347 124.615 30.184C124.487 30.3333 124.434 30.4933 124.455 30.664C124.093 31.4107 123.719 32.1573 123.335 32.904C122.973 33.6293 122.535 34.2907 122.023 34.888C121.511 35.4853 120.85 35.976 120.039 36.36C119.89 36.4453 119.623 36.5627 119.239 36.712C118.877 36.84 118.61 36.872 118.439 36.808ZM129.932 36.808C129.655 36.8293 129.431 36.808 129.26 36.744C129.089 36.6587 128.876 36.5413 128.62 36.392C128.151 36.0293 127.799 35.6667 127.564 35.304C127.351 34.92 127.255 34.5467 127.276 34.184C127.319 33.992 127.319 33.8213 127.276 33.672C127.255 33.5227 127.244 33.448 127.244 33.448C127.116 33.3413 127.073 33.2773 127.116 33.256C127.159 33.2133 127.191 33.1493 127.212 33.064C127.383 33.0213 127.404 32.904 127.276 32.712C127.212 32.5413 127.244 32.1573 127.372 31.56C127.521 30.9413 127.713 30.3653 127.948 29.832C128.055 29.5973 128.204 29.288 128.396 28.904C128.609 28.52 128.844 28.136 129.1 27.752C129.356 27.3467 129.591 27.0267 129.804 26.792C130.273 26.2587 130.689 25.864 131.052 25.608C131.436 25.3307 131.863 25.1067 132.332 24.936C132.759 24.7653 133.068 24.6693 133.26 24.648C133.452 24.6267 133.719 24.7547 134.06 25.032C134.572 25.1813 134.956 25.3947 135.212 25.672C135.489 25.928 135.703 26.3333 135.852 26.888C136.023 27.5067 136.076 28.2427 136.012 29.096C135.969 29.928 135.607 31.0053 134.924 32.328C134.519 33.16 134.113 33.7893 133.708 34.216C133.324 34.6427 132.855 35.0907 132.3 35.56C131.895 35.9013 131.521 36.168 131.18 36.36C130.839 36.552 130.423 36.7013 129.932 36.808ZM132.492 33C132.919 32.36 133.249 31.7733 133.484 31.24C133.74 30.6853 133.943 29.992 134.092 29.16C134.135 28.9253 134.145 28.6373 134.124 28.296C134.103 27.9333 134.049 27.6027 133.964 27.304C133.9 27.0053 133.804 26.8453 133.676 26.824C133.399 26.7173 133.089 26.7173 132.748 26.824C132.407 26.9093 132.033 27.1653 131.628 27.592C131.265 28.0187 130.935 28.4987 130.636 29.032C130.359 29.5653 130.103 30.152 129.868 30.792C129.633 31.432 129.409 32.1147 129.196 32.84C128.983 33.6507 128.993 34.2693 129.228 34.696C129.484 35.1227 129.9 35.2293 130.476 35.016C131.052 34.7813 131.724 34.1093 132.492 33ZM136.733 44.168C136.648 44.168 136.541 44.168 136.413 44.168C136.285 44.1893 136.168 44.104 136.061 43.912C135.976 43.8053 135.923 43.6453 135.901 43.432C135.901 43.2187 135.955 42.8347 136.061 42.28C136.168 41.9173 136.253 41.5547 136.317 41.192C136.381 40.8507 136.413 40.5947 136.413 40.424C136.413 40.3387 136.435 40.168 136.477 39.912C136.541 39.6773 136.573 39.5067 136.573 39.4C136.68 39.2293 136.765 38.9947 136.829 38.696C136.893 38.3973 136.925 38.1307 136.925 37.896C136.925 37.64 137.053 37.4053 137.309 37.192C137.309 37.0213 137.341 36.808 137.405 36.552C137.491 36.296 137.533 36.1253 137.533 36.04C137.597 35.7413 137.736 35.2187 137.949 34.472C138.184 33.704 138.461 32.84 138.781 31.88C139.123 30.92 139.453 29.9813 139.773 29.064C140.093 28.1467 140.381 27.368 140.637 26.728C140.893 26.1307 141.064 25.6187 141.149 25.192C141.256 24.744 141.309 24.4133 141.309 24.2C141.309 24.1147 141.331 24.0507 141.373 24.008C141.416 23.944 141.512 23.8267 141.661 23.656C141.875 23.4427 142.056 23.3787 142.205 23.464C142.376 23.5493 142.579 23.6773 142.813 23.848C142.984 24.1253 143.101 24.36 143.165 24.552C143.251 24.744 143.251 25.0747 143.165 25.544C143.165 25.864 143.112 26.1413 143.005 26.376C142.899 26.6107 142.803 26.792 142.717 26.92C142.632 27.0267 142.611 27.0693 142.653 27.048C143.528 26.6427 144.296 26.4293 144.957 26.408C145.64 26.3653 146.205 26.4827 146.653 26.76C147.123 27.016 147.475 27.3787 147.709 27.848C147.944 28.3173 148.061 28.8613 148.061 29.48C148.061 29.736 148.008 30.0453 147.901 30.408C147.795 30.7493 147.656 31.0693 147.485 31.368C147.336 31.6453 147.197 31.848 147.069 31.976C146.984 31.976 146.899 32.0507 146.813 32.2C146.728 32.328 146.643 32.4773 146.557 32.648C146.387 32.8613 146.109 33.1067 145.725 33.384C145.363 33.64 145 33.8533 144.637 34.024C144.275 34.1733 144.008 34.216 143.837 34.152C143.837 34.152 143.805 34.1627 143.741 34.184C143.699 34.184 143.677 34.2373 143.677 34.344C143.677 34.3867 143.507 34.4827 143.165 34.632C142.824 34.76 142.429 34.888 141.981 35.016C141.533 35.1227 141.139 35.176 140.797 35.176C140.349 35.176 140.029 35.0907 139.837 34.92C139.795 34.9627 139.741 35.0267 139.677 35.112C139.635 35.1973 139.613 35.272 139.613 35.336C139.613 35.464 139.56 35.7093 139.453 36.072C139.368 36.4133 139.261 36.744 139.133 37.064C139.005 37.384 138.888 37.544 138.781 37.544C138.781 37.544 138.76 37.576 138.717 37.64C138.675 37.704 138.696 37.7893 138.781 37.896C138.781 37.896 138.771 38.0133 138.749 38.248C138.749 38.504 138.696 38.7173 138.589 38.888C138.589 39.0587 138.557 39.3147 138.493 39.656C138.429 39.9973 138.355 40.2533 138.269 40.424C138.269 40.68 138.227 40.9253 138.141 41.16C138.077 41.416 138.003 41.544 137.917 41.544C137.832 41.5653 137.779 41.6933 137.757 41.928C137.736 42.184 137.725 42.3653 137.725 42.472C137.704 43.0053 137.597 43.4213 137.405 43.72C137.213 44.0187 136.989 44.168 136.733 44.168ZM140.605 33.48C140.776 33.48 141.128 33.4053 141.661 33.256C142.195 33.1067 142.739 32.9253 143.293 32.712C143.869 32.4773 144.296 32.2427 144.573 32.008C145.128 31.5173 145.555 30.9627 145.853 30.344C146.173 29.704 146.152 29.096 145.789 28.52C145.619 28.2213 145.309 28.104 144.861 28.168C144.413 28.2107 143.923 28.3813 143.389 28.68C142.856 28.9787 142.355 29.352 141.885 29.8C141.629 30.0773 141.395 30.4187 141.181 30.824C140.968 31.2293 140.787 31.6347 140.637 32.04C140.509 32.4453 140.435 32.7867 140.413 33.064C140.392 33.3413 140.456 33.48 140.605 33.48ZM161.025 37.032C160.812 37.0533 160.492 37 160.065 36.872C159.66 36.7227 159.382 36.5733 159.233 36.424C159.084 36.2107 158.945 35.9547 158.817 35.656C158.71 35.3573 158.625 35.0907 158.561 34.856C158.518 34.6 158.497 34.4507 158.497 34.408L158.881 31.752C158.988 31.56 159.041 31.3573 159.041 31.144C159.062 30.9307 159.116 30.728 159.201 30.536C159.18 30.4293 159.212 30.216 159.297 29.896C159.404 29.5547 159.521 29.1813 159.649 28.776C159.798 28.3493 159.937 27.9653 160.065 27.624C160.193 27.2613 160.268 27.0267 160.289 26.92C160.374 26.6 160.492 26.28 160.641 25.96C160.79 25.64 160.929 25.32 161.057 25C161.228 24.4453 161.356 24.04 161.441 23.784C161.526 23.528 161.601 23.3253 161.665 23.176C161.75 23.0267 161.846 22.856 161.953 22.664C162.06 22.4507 162.209 22.1307 162.401 21.704L164.289 17.416C164.076 17.3093 163.884 17.1067 163.713 16.808C163.542 16.488 163.457 16.2 163.457 15.944C163.436 15.816 163.457 15.7307 163.521 15.688C163.585 15.624 163.692 15.56 163.841 15.496C164.076 15.496 164.321 15.4853 164.577 15.464C164.833 15.4427 165.089 15.4533 165.345 15.496C165.537 15.5173 165.665 15.5067 165.729 15.464C165.793 15.4 165.921 15.3893 166.113 15.432C166.305 15.496 166.497 15.5173 166.689 15.496C166.902 15.4747 167.084 15.4213 167.233 15.336C167.297 15.336 167.489 15.3253 167.809 15.304C168.129 15.2827 168.481 15.2613 168.865 15.24C169.27 15.2187 169.622 15.1973 169.921 15.176C170.241 15.1547 170.433 15.144 170.497 15.144C170.476 15.144 170.614 15.1333 170.913 15.112C171.233 15.0907 171.606 15.0693 172.033 15.048C172.46 15.0053 172.844 14.9733 173.185 14.952C173.526 14.9093 173.718 14.8773 173.761 14.856C174.209 14.7493 174.518 14.792 174.689 14.984C174.86 15.176 174.988 15.3573 175.073 15.528C175.116 15.6347 175.169 15.752 175.233 15.88C175.297 15.9867 175.34 16.0827 175.361 16.168C175.404 16.232 175.393 16.2747 175.329 16.296C175.222 16.4453 175.073 16.552 174.881 16.616C174.71 16.68 174.508 16.6693 174.273 16.584C174.188 16.5627 173.878 16.5627 173.345 16.584C172.812 16.6053 172.161 16.648 171.393 16.712C170.646 16.776 169.878 16.8507 169.089 16.936C168.321 17 167.649 17.064 167.073 17.128C166.86 17.256 166.678 17.4267 166.529 17.64C166.38 17.832 166.241 18.0453 166.113 18.28C166.049 18.408 165.9 18.7067 165.665 19.176C165.452 19.6453 165.217 20.1573 164.961 20.712C164.705 21.2667 164.492 21.7467 164.321 22.152C164.15 22.536 164.065 22.7173 164.065 22.696C163.894 22.9307 163.937 23.0693 164.193 23.112C164.47 23.1547 164.705 23.176 164.897 23.176C165.068 23.176 165.238 23.2187 165.409 23.304C165.601 23.368 165.782 23.3893 165.953 23.368C166.06 23.3467 166.262 23.3787 166.561 23.464C166.881 23.528 167.222 23.624 167.585 23.752C167.969 23.8587 168.31 23.976 168.609 24.104C168.929 24.2107 169.153 24.3067 169.281 24.392C169.772 24.6907 170.198 24.9893 170.561 25.288C170.924 25.5867 171.212 25.9493 171.425 26.376C171.638 26.8027 171.82 27.24 171.969 27.688C172.118 28.136 172.172 28.6053 172.129 29.096C172.129 29.2027 172.097 29.4267 172.033 29.768C171.99 30.088 171.926 30.4187 171.841 30.76C171.756 31.1013 171.66 31.3573 171.553 31.528C171.297 31.9547 171.02 32.36 170.721 32.744C170.444 33.1067 170.188 33.4267 169.953 33.704C169.612 34.1307 169.206 34.4933 168.737 34.792C168.289 35.0693 167.82 35.3253 167.329 35.56C166.945 35.752 166.646 35.9013 166.433 36.008C166.241 36.0933 166.06 36.1573 165.889 36.2C165.718 36.2427 165.484 36.296 165.185 36.36C165.206 36.36 165.1 36.392 164.865 36.456C164.63 36.4987 164.396 36.552 164.161 36.616C163.926 36.68 163.809 36.712 163.809 36.712C163.532 36.8613 163.244 36.9573 162.945 37C162.646 37.0213 162.348 37.032 162.049 37.032C161.878 37.032 161.708 37.0213 161.537 37C161.366 37 161.196 37.0107 161.025 37.032ZM160.737 35.336C161.057 35.3147 161.388 35.304 161.729 35.304C162.07 35.304 162.412 35.2613 162.753 35.176C163.82 34.8773 164.812 34.5573 165.729 34.216C166.668 33.8747 167.521 33.2773 168.289 32.424C168.822 31.8053 169.217 31.2293 169.473 30.696C169.75 30.1627 169.964 29.5547 170.113 28.872C170.198 28.5307 170.198 28.2213 170.113 27.944C170.028 27.6453 169.953 27.2933 169.889 26.888C169.697 26.44 169.516 26.1413 169.345 25.992C169.174 25.8213 169.004 25.7147 168.833 25.672C168.662 25.6293 168.492 25.5653 168.321 25.48C168.044 25.2453 167.649 25.0853 167.137 25C166.625 24.9147 166.273 24.8613 166.081 24.84C166.209 24.8613 166.177 24.8613 165.985 24.84C165.814 24.7973 165.558 24.7547 165.217 24.712C164.876 24.648 164.534 24.5947 164.193 24.552C163.852 24.5093 163.585 24.488 163.393 24.488C163.244 24.8293 163.084 25.2027 162.913 25.608C162.764 26.0133 162.604 26.4187 162.433 26.824C162.284 27.208 162.145 27.592 162.017 27.976C161.804 28.5947 161.601 29.224 161.409 29.864C161.217 30.4827 161.036 31.112 160.865 31.752C160.78 32.1147 160.694 32.552 160.609 33.064C160.524 33.576 160.481 34.056 160.481 34.504C160.502 34.9307 160.588 35.208 160.737 35.336ZM173.434 43.368C172.922 43.5173 172.357 43.5387 171.738 43.432C171.141 43.3467 170.618 43.1653 170.17 42.888C169.701 42.6107 169.434 42.3013 169.37 41.96C169.349 41.832 169.392 41.6933 169.498 41.544C169.584 41.3947 169.701 41.288 169.85 41.224C169.978 41.1813 170.096 41.224 170.202 41.352C170.373 41.4587 170.682 41.5867 171.13 41.736C171.578 41.9067 172.08 41.9387 172.634 41.832C173.125 41.7253 173.605 41.4373 174.074 40.968C174.565 40.4987 174.96 40.0613 175.258 39.656C175.429 39.4 175.717 38.9413 176.122 38.28C176.528 37.6187 176.944 36.8933 177.37 36.104C177.818 35.2933 178.192 34.5467 178.49 33.864C178.554 33.6933 178.629 33.4907 178.714 33.256C178.8 33.0213 178.906 32.8293 179.034 32.68C179.162 32.424 179.269 32.1893 179.354 31.976C179.461 31.7413 179.525 31.5813 179.546 31.496C179.568 31.3893 179.664 31.176 179.834 30.856C180.005 30.536 180.165 30.216 180.314 29.896C180.421 29.576 180.581 29.1067 180.794 28.488C181.008 27.8693 181.221 27.368 181.434 26.984C181.69 26.4933 181.893 26.0987 182.042 25.8C182.213 25.48 182.394 25.288 182.586 25.224C182.778 25.0747 182.906 25 182.97 25C183.056 25 183.216 25.064 183.45 25.192C183.706 25.448 183.866 25.704 183.93 25.96C183.994 26.1947 183.962 26.4933 183.834 26.856C183.728 27.1973 183.514 27.6667 183.194 28.264C183.024 28.776 182.832 29.2453 182.618 29.672C182.426 30.0773 182.277 30.344 182.17 30.472C182.064 30.728 181.936 31.016 181.786 31.336C181.658 31.6347 181.541 31.912 181.434 32.168C181.05 33.0213 180.72 33.7147 180.442 34.248C180.165 34.7813 179.92 35.272 179.706 35.72C179.493 36.168 179.269 36.6907 179.034 37.288C178.544 38.0773 178.064 38.824 177.594 39.528C177.146 40.2533 176.666 40.9253 176.154 41.544C175.941 41.736 175.674 41.96 175.354 42.216C175.034 42.472 174.704 42.7067 174.362 42.92C174.042 43.1333 173.733 43.2827 173.434 43.368ZM177.754 35.688C177.434 35.6453 177.114 35.4533 176.794 35.112C176.496 34.7707 176.261 34.408 176.09 34.024C175.92 33.64 175.856 33.3627 175.898 33.192C175.898 33.0853 175.898 33 175.898 32.936C175.898 32.872 175.898 32.84 175.898 32.84C175.77 32.84 175.653 32.68 175.546 32.36C175.461 32.04 175.397 31.624 175.354 31.112C175.312 30.6 175.28 30.056 175.258 29.48C175.258 28.904 175.28 28.36 175.322 27.848C175.408 27.4853 175.45 27.0907 175.45 26.664C175.45 26.216 175.461 25.864 175.482 25.608C175.461 25.2667 175.493 25.0427 175.578 24.936C175.664 24.808 175.749 24.712 175.834 24.648C176.432 24.392 176.826 24.552 177.018 25.128C177.232 25.6827 177.285 26.728 177.178 28.264C177.136 29.1173 177.136 29.9707 177.178 30.824C177.221 31.6773 177.338 32.424 177.53 33.064C177.744 33.704 178.032 34.1413 178.394 34.376C178.544 34.4613 178.618 34.5787 178.618 34.728C178.618 34.8773 178.576 35.0373 178.49 35.208C178.405 35.3573 178.288 35.4853 178.138 35.592C178.01 35.6773 177.882 35.7093 177.754 35.688ZM187.733 36.072C187.562 36.1147 187.338 36.136 187.061 36.136C186.783 36.1147 186.538 36.0827 186.325 36.04C186.133 35.976 186.036 35.912 186.036 35.848C186.036 35.7413 185.983 35.688 185.877 35.688C185.877 35.688 185.823 35.6453 185.717 35.56C185.631 35.4747 185.493 35.3893 185.301 35.304C185.109 35.0053 185.013 34.6853 185.013 34.344C185.013 33.9813 185.109 33.416 185.301 32.648C185.365 32.1147 185.567 31.496 185.909 30.792C186.271 30.0667 186.709 29.3307 187.221 28.584C187.733 27.8373 188.266 27.1653 188.821 26.568C189.397 25.9707 189.919 25.5333 190.389 25.256C190.687 24.9573 191.05 24.7973 191.477 24.776C191.903 24.7547 192.309 24.8507 192.693 25.064C192.906 25.1707 193.119 25.3413 193.333 25.576C193.546 25.8107 193.749 26.0667 193.941 26.344C194.133 26.6213 194.293 26.8987 194.421 27.176C194.485 27.4107 194.517 27.624 194.517 27.816C194.538 27.9867 194.538 28.2 194.517 28.456C194.517 28.712 194.485 29.096 194.421 29.608C194.314 29.992 194.218 30.4613 194.133 31.016C194.069 31.5707 194.037 32.0507 194.037 32.456C193.994 32.8613 194.037 33.1493 194.165 33.32C194.314 33.4907 194.527 33.5013 194.805 33.352C195.061 33.224 195.306 33.1707 195.541 33.192C195.775 33.192 195.957 33.256 196.085 33.384C196.234 33.512 196.309 33.704 196.309 33.96C196.309 34.216 196.181 34.4827 195.925 34.76C195.69 35.016 195.391 35.24 195.029 35.432C194.687 35.6027 194.357 35.688 194.037 35.688C193.802 35.688 193.578 35.5493 193.365 35.272C193.151 34.9733 192.959 34.6213 192.789 34.216C192.639 33.7893 192.501 33.384 192.373 33L192.181 32.264L190.805 33.576C190.527 33.8747 190.25 34.152 189.973 34.408C189.717 34.6427 189.557 34.8133 189.493 34.92C189.386 35.112 189.183 35.304 188.885 35.496C188.607 35.688 188.223 35.88 187.733 36.072ZM187.829 34.184C188.191 33.9707 188.607 33.6613 189.077 33.256C189.546 32.8293 190.005 32.3707 190.453 31.88C190.901 31.368 191.274 30.8987 191.573 30.472C191.935 29.9813 192.213 29.5227 192.405 29.096C192.597 28.6693 192.735 28.264 192.821 27.88C192.735 27.6453 192.597 27.4 192.405 27.144C192.213 26.8667 192.042 26.7173 191.893 26.696C191.423 26.696 190.922 26.9947 190.389 27.592C189.877 28.168 189.375 28.7973 188.885 29.48C188.799 29.5867 188.682 29.7573 188.533 29.992C188.383 30.2267 188.234 30.4507 188.085 30.664C187.957 30.856 187.871 30.984 187.829 31.048C187.765 31.1333 187.637 31.3787 187.445 31.784C187.274 32.168 187.103 32.5627 186.933 32.968C186.762 33.352 186.677 33.608 186.677 33.736C186.677 33.864 186.687 34.0027 186.709 34.152C186.751 34.3013 186.858 34.3973 187.029 34.44C187.199 34.4827 187.466 34.3973 187.829 34.184ZM205.664 36.648C205.536 36.6053 205.408 36.5733 205.28 36.552C205.152 36.5093 205.024 36.4667 204.896 36.424C204.79 36.3813 204.662 36.3493 204.512 36.328C204.299 36.0293 204.214 35.6667 204.256 35.24C204.299 34.792 204.395 34.3333 204.544 33.864C204.715 33.3947 204.875 32.936 205.024 32.488C205.195 32.04 205.291 31.656 205.312 31.336C205.291 31.2507 205.259 31.2293 205.216 31.272C205.174 31.2933 205.152 31.3253 205.152 31.368C205.003 31.5387 204.79 31.656 204.512 31.72C204.235 31.784 203.979 31.8373 203.744 31.88C203.339 31.944 202.934 32.0187 202.528 32.104C202.123 32.1893 201.728 32.2853 201.344 32.392C201.28 32.3493 201.206 32.296 201.12 32.232C201.056 32.168 200.992 32.1147 200.928 32.072C200.779 32.072 200.651 32.2107 200.544 32.488C200.438 32.7653 200.342 33.1067 200.256 33.512C200.171 33.896 200.086 34.2693 200 34.632C199.936 34.9733 199.872 35.2187 199.808 35.368C199.467 35.4107 199.222 35.4213 199.072 35.4C198.944 35.3787 198.699 35.3147 198.336 35.208C198.166 34.9733 198.07 34.7493 198.048 34.536C198.048 34.3227 198.08 34.088 198.144 33.832C198.251 33.3413 198.336 32.9467 198.4 32.648C198.486 32.3493 198.624 31.9653 198.816 31.496C198.923 31.2613 199.019 31.0373 199.104 30.824C199.211 30.5893 199.264 30.3333 199.264 30.056C199.435 29.8427 199.552 29.608 199.616 29.352C199.68 29.096 199.755 28.84 199.84 28.584C200.182 27.7093 200.448 27.0373 200.64 26.568C200.854 26.0773 201.003 25.6933 201.088 25.416C201.174 25.1387 201.227 24.8827 201.248 24.648C201.27 24.3493 201.451 24.2 201.792 24.2C202.006 24.2 202.23 24.2853 202.464 24.456C202.699 24.6053 202.88 24.7973 203.008 25.032C203.136 25.2667 203.147 25.512 203.04 25.768C202.976 25.9387 202.87 26.216 202.72 26.6C202.592 26.9627 202.443 27.368 202.272 27.816C202.123 28.2427 201.974 28.648 201.824 29.032C201.696 29.3947 201.59 29.6613 201.504 29.832C201.483 29.9173 201.44 29.992 201.376 30.056C201.312 30.0987 201.28 30.1733 201.28 30.28C201.43 30.3867 201.675 30.4293 202.016 30.408C202.379 30.3653 202.635 30.3013 202.784 30.216C203.104 30.216 203.414 30.216 203.712 30.216C204.032 30.216 204.352 30.216 204.672 30.216C204.992 30.408 205.238 30.696 205.408 31.08C205.558 30.6747 205.76 30.1413 206.016 29.48C206.272 28.7973 206.518 28.1253 206.752 27.464C206.987 26.8027 207.126 26.3013 207.168 25.96C207.211 25.768 207.296 25.5973 207.424 25.448C207.552 25.2987 207.691 25.1813 207.84 25.096C208.139 25.2453 208.427 25.3733 208.704 25.48C209.003 25.5653 209.195 25.8107 209.28 26.216C209.259 26.408 209.216 26.6 209.152 26.792C209.088 26.9627 209.024 27.1333 208.96 27.304C208.747 27.9227 208.48 28.6053 208.16 29.352C207.84 30.0773 207.542 30.824 207.264 31.592C207.008 32.3387 206.827 33.0427 206.72 33.704C206.72 33.768 206.667 33.9813 206.56 34.344C206.475 34.7067 206.379 35.0587 206.272 35.4C206.187 35.7413 206.134 35.9227 206.112 35.944C206.112 36.0933 206.07 36.232 205.984 36.36C205.899 36.4667 205.792 36.5627 205.664 36.648Z" fill="#F5EFEF"/>
<path d="M17.1209 17.8762L0.834961 34.1621L16.839 50.1661L33.1249 33.8801L17.1209 17.8762Z" fill="#FC7303"/>
<path d="M17.1192 18.7094L32.2904 33.8806L16.8396 49.3314L1.66837 34.1602L17.1192 18.7094ZM17.1192 17.041L0 34.1602L16.8396 50.9998L33.9588 33.8806L17.1192 17.041Z" fill="#F2F2F2"/>
<path d="M17.1209 9.29607L0.834961 25.582L16.839 41.586L33.1249 25.3001L17.1209 9.29607Z" fill="#FC7303"/>
<path d="M17.1192 10.1342L32.2904 25.3054L16.8396 40.7562L1.66837 25.585L17.1192 10.1342ZM17.1192 8.46582L0 25.585L16.8396 42.4246L33.9588 25.3054L17.1192 8.46582Z" fill="#F2F2F2"/>
<path d="M17.1702 0.836112L0.884277 17.1221L16.8883 33.1261L33.1742 16.8401L17.1702 0.836112Z" fill="#FC7303"/>
<path d="M17.1696 1.66837L32.3409 16.8396L16.8901 32.2904L1.71885 17.1192L17.1696 1.66837ZM17.1696 0L0.0550537 17.1192L16.8946 33.9588L34.0138 16.8396L17.1696 0Z" fill="#F2F2F2"/>
</svg>
