<?xml version="1.0" encoding="UTF-8"?>
<svg id="_Слой_2" data-name="Слой 2" xmlns="http://www.w3.org/2000/svg" viewBox="0 0 288.59 432.75">
  <defs>
    <style>
      .cls-1 {
        fill: #f2f2f2;
      }

      .cls-1, .cls-2 {
        stroke-width: 0px;
      }

      .cls-2 {
        fill: #fc7303;
      }
    </style>
  </defs>
  <g id="_Слой_2-2" data-name="Слой 2">
    <g>
      <rect class="cls-2" x="46.36" y="192.65" width="195.44" height="192.07" transform="translate(-161.93 186.43) rotate(-45)"/>
      <path class="cls-1" d="M145.27,158.75l128.74,128.74-131.12,131.12L14.14,289.87l131.12-131.12M145.27,144.61L0,289.87l142.88,142.88,145.27-145.27-142.88-142.88h0Z"/>
    </g>
    <g>
      <rect class="cls-2" x="46.36" y="119.88" width="195.44" height="192.07" transform="translate(-110.48 165.11) rotate(-45)"/>
      <path class="cls-1" d="M145.27,85.98l128.74,128.74-131.12,131.12L14.14,217.11,145.27,85.98M145.27,71.84L0,217.11l142.88,142.88,145.27-145.27L145.27,71.84h0Z"/>
    </g>
    <g>
      <rect class="cls-2" x="46.8" y="48.04" width="195.44" height="192.07" transform="translate(-59.55 144.39) rotate(-45)"/>
      <path class="cls-1" d="M145.71,14.14l128.74,128.74-131.12,131.12L14.59,145.27,145.71,14.14M145.71,0L.45,145.27l142.88,142.88,145.27-145.27L145.71,0h0Z"/>
    </g>
  </g>
</svg>